<?xml version="1.0" encoding="utf-8"?>
<!-- Generator: Adobe Illustrator 16.0.0, SVG Export Plug-In . SVG Version: 6.00 Build 0)  -->
<!DOCTYPE svg PUBLIC "-//W3C//DTD SVG 1.1//EN" "http://www.w3.org/Graphics/SVG/1.1/DTD/svg11.dtd">
<svg version="1.1" id="Layer_1" xmlns="http://www.w3.org/2000/svg" xmlns:xlink="http://www.w3.org/1999/xlink" x="0px" y="0px"
	 width="1146.012px" height="370.593px" viewBox="0 0 1146.012 370.593" enable-background="new 0 0 1146.012 370.593"
	 xml:space="preserve">
<g enable-background="new    ">
	<path fill="#FFFFFF" d="M406.333,250.79c0.379,1.327-1.327,2.654-2.844,2.654h-21.612c-1.517,0-2.843-1.327-3.412-2.654
		l-4.55-15.355h-38.105l-4.55,15.355c-0.568,1.327-1.896,2.654-3.412,2.654h-21.611c-1.517,0-3.223-1.327-2.844-2.654
		l37.536-127.016v-0.189c0.758-1.706,1.327-2.653,2.654-2.653h8.341h5.877h8.341c1.327,0,2.085,0.947,2.654,2.653v0.189
		C381.309,166.049,393.821,208.514,406.333,250.79z M366.333,209.841l-11.375-38.862l-11.564,38.862H366.333z"/>
	<path fill="#FFFFFF" d="M521.969,186.713l-0.189,0.189h0.189c0,0,0.19,2.654-2.085,4.929l-10.616,10.806
		c-2.274,2.275-4.929,1.896-4.929,1.896h-35.071V250.6c0,1.327-1.327,2.654-2.844,2.654h-22.37c-1.517,0-2.654-1.327-2.654-2.654
		V123.395c0-1.517,1.137-2.654,2.654-2.654h60.285c0,0,2.654-0.379,4.929,1.896l10.616,10.806c2.275,2.274,2.085,4.929,2.085,4.929
		V186.713z M469.267,176.666h19.526c0,0,0.758,0.19,1.517-0.568l3.223-3.033c0.568-0.759,0.568-1.517,0.568-1.517v-17.82
		c0,0,0-0.758-0.568-1.327l-3.223-3.223c-0.759-0.568-1.517-0.568-1.517-0.568h-19.526V176.666z"/>
	<path fill="#FFFFFF" d="M641.584,186.713l-0.189,0.189h0.189c0,0,0.189,2.654-2.086,4.929l-10.616,10.806
		c-2.274,2.275-4.929,1.896-4.929,1.896h-35.071V250.6c0,1.327-1.327,2.654-2.844,2.654h-22.37c-1.517,0-2.654-1.327-2.654-2.654
		V123.395c0-1.517,1.137-2.654,2.654-2.654h60.285c0,0,2.654-0.379,4.929,1.896l10.616,10.806c2.275,2.274,2.086,4.929,2.086,4.929
		V186.713z M588.882,176.666h19.526c0,0,0.758,0.19,1.517-0.568l3.223-3.033c0.568-0.759,0.568-1.517,0.568-1.517v-17.82
		c0,0,0-0.758-0.568-1.327l-3.223-3.223c-0.759-0.568-1.517-0.568-1.517-0.568h-19.526V176.666z"/>
	<path fill="#FFFFFF" d="M754.565,123.584v22.56c0,0.948-0.568,1.896-1.517,2.275v0.379h-44.93v24.455h33.555
		c1.517,0,2.654,1.138,2.654,2.654v22.56c0,0.947-0.569,1.896-1.327,2.274v0.38h-34.882v49.668c0,1.517-1.138,2.654-2.653,2.654
		h-22.561c-1.516,0-2.653-1.138-2.653-2.654V123.584c0-1.517,1.138-2.653,2.653-2.653c22.939,0,46.067,0,69.006,0
		C753.238,120.931,754.565,122.068,754.565,123.584z"/>
	<path fill="#FFFFFF" d="M874.938,235.813c0,0,0.379,2.654-1.896,4.93l-10.616,10.616c-2.275,2.274-4.929,2.085-4.929,2.085
		l-49.101-0.189c0,0-2.653,0.379-4.929-1.896l-10.616-10.616c-2.274-2.275-2.085-4.93-2.085-4.93h0.189
		c0-0.189-0.189-0.189-0.189-0.379v-111.85c0-1.517,1.327-2.653,2.653-2.653h22.561c1.516,0,2.653,1.137,2.653,2.653v98.011
		c0,0.189,0.19,0.759,0.569,1.327l2.654,2.654h21.99l2.654-2.654c0.568-0.568,0.568-1.138,0.758-1.327v-98.011
		c0-1.517,1.138-2.653,2.654-2.653h22.369c1.518,0,2.654,1.137,2.654,2.653V235.813z"/>
	<path fill="#FFFFFF" d="M941.473,173.253h33.555c1.517,0,2.654,1.138,2.654,2.654v22.56c0,1.517-1.138,2.654-2.654,2.654h-33.555
		v24.455h43.792c1.327,0,2.654,1.137,2.654,2.653v22.56c0,1.517-1.327,2.654-2.654,2.654H916.26c-1.518,0-2.654-1.138-2.654-2.654
		V123.584c0-1.517,1.137-2.653,2.654-2.653h69.005c1.327,0,2.654,1.137,2.654,2.653v22.56c0,1.517-1.327,2.654-2.654,2.654h-43.792
		V173.253z"/>
	<path fill="#FFFFFF" d="M1109.43,228.23v22.56c0,1.517-1.327,2.654-2.844,2.654h-75.83c-1.517,0-2.844-1.138-2.844-2.654V123.584
		h0.19c0.189-1.137,1.326-2.085,2.653-2.085h22.37c1.327,0,2.465,0.948,2.654,2.085v101.992h50.806
		C1108.103,225.577,1109.43,226.903,1109.43,228.23z"/>
</g>
<g>
	
		<radialGradient id="SVGID_1_" cx="123.6289" cy="503.0464" r="234.8737" gradientTransform="matrix(0.9929 -0.1186 0.1186 0.9929 -166.68 -441.3291)" gradientUnits="userSpaceOnUse">
		<stop  offset="0.3206" style="stop-color:#CC6437"/>
		<stop  offset="1" style="stop-color:#B34926"/>
	</radialGradient>
	<path fill="url(#SVGID_1_)" d="M47.953,254.235c18.681,13.978,58.205,3.923,58.402-32.346
		c0.184-36.227-62.546-57.08-70.639-120.955C27.649,37.086,74.366,3.896,80.446,0c-9.398,11.446-29.708,38.457-17.915,69.923
		c11.764,31.457,37.117,47.922,61.572,42.726c19.275-4.072,38.613-19.663,32.94-53.069c0,0,6.63,10.592,12.885,55.521
		c4,28.938,8.979,98.949,8.259,100.179c-1.802,3.126-91.444,80.755-91.444,80.755l-66.771-0.201
		C19.976,295.839,29.25,240.265,47.953,254.235z"/>
	
		<radialGradient id="SVGID_2_" cx="155.8237" cy="608.02" r="253.6658" gradientTransform="matrix(0.9929 -0.1186 0.1186 0.9929 -166.68 -441.3291)" gradientUnits="userSpaceOnUse">
		<stop  offset="0.3215" style="stop-color:#CC6437"/>
		<stop  offset="1" style="stop-color:#B34926"/>
	</radialGradient>
	<path fill="url(#SVGID_2_)" d="M157.05,59.58c0,0,49.075,72.883,62.767,132.55c6.515,28.48,13.189,72.283-0.08,106.125
		c-14.472,36.982-50.497,63.119-80.602,69.566C81.444,380.179,30.486,350.146,8.111,298.694c-22.358-51.43,8.6-100.68,8.6-100.68
		c4.254,25.235,8.554,39.016,31.24,56.211c21.616,16.438,84.805,21.479,106.282-56.113
		C162.654,167.738,171.353,116.893,157.05,59.58z"/>
</g>
</svg>
